<svg width="138" height="108" viewBox="0 0 138 108" fill="none" xmlns="http://www.w3.org/2000/svg">
<g filter="url(#filter0_d)">
<rect x="30" y="4" width="100" height="100" rx="20" fill="white"/>
<path d="M30 24C30 12.9543 38.9543 4 50 4H110C121.046 4 130 12.9543 130 24V31H30V24Z" fill="#F02323"/>
<rect x="70" y="43" width="20" height="20" rx="7" fill="#C4C4C4"/>
<rect x="100" y="43" width="20" height="20" rx="7" fill="#C4C4C4"/>
<rect x="40" y="71" width="20" height="20" rx="7" fill="#C4C4C4"/>
<rect x="70" y="71" width="20" height="20" rx="7" fill="#C4C4C4"/>
<rect x="100" y="71" width="20" height="20" rx="7" fill="#C4C4C4"/>
</g>
<g filter="url(#filter1_d)">
<rect x="15" y="4" width="100" height="100" rx="20" fill="white"/>
<path d="M15 24C15 12.9543 23.9543 4 35 4H95C106.046 4 115 12.9543 115 24V31H15V24Z" fill="#F02323"/>
<rect x="55" y="43" width="20" height="20" rx="7" fill="#C4C4C4"/>
<rect x="85" y="43" width="20" height="20" rx="7" fill="#C4C4C4"/>
<rect x="25" y="71" width="20" height="20" rx="7" fill="#C4C4C4"/>
<rect x="55" y="71" width="20" height="20" rx="7" fill="#C4C4C4"/>
<rect x="85" y="71" width="20" height="20" rx="7" fill="#C4C4C4"/>
</g>
<g filter="url(#filter2_d)">
<rect y="4" width="100" height="100" rx="20" fill="white"/>
<path d="M0 24C0 12.9543 8.95431 4 20 4H80C91.0457 4 100 12.9543 100 24V31H0V24Z" fill="#F02323"/>
<rect x="40" y="43" width="20" height="20" rx="7" fill="#C4C4C4"/>
<rect x="70" y="43" width="20" height="20" rx="7" fill="#C4C4C4"/>
<rect x="10" y="71" width="20" height="20" rx="7" fill="#C4C4C4"/>
<rect x="40" y="71" width="20" height="20" rx="7" fill="#C4C4C4"/>
<rect x="70" y="71" width="20" height="20" rx="7" fill="#C4C4C4"/>
</g>
<defs>
<filter id="filter0_d" x="30" y="0" width="108" height="108" filterUnits="userSpaceOnUse" color-interpolation-filters="sRGB">
<feFlood flood-opacity="0" result="BackgroundImageFix"/>
<feColorMatrix in="SourceAlpha" type="matrix" values="0 0 0 0 0 0 0 0 0 0 0 0 0 0 0 0 0 0 127 0"/>
<feOffset dx="4"/>
<feGaussianBlur stdDeviation="2"/>
<feColorMatrix type="matrix" values="0 0 0 0 0 0 0 0 0 0 0 0 0 0 0 0 0 0 0.25 0"/>
<feBlend mode="normal" in2="BackgroundImageFix" result="effect1_dropShadow"/>
<feBlend mode="normal" in="SourceGraphic" in2="effect1_dropShadow" result="shape"/>
</filter>
<filter id="filter1_d" x="15" y="0" width="108" height="108" filterUnits="userSpaceOnUse" color-interpolation-filters="sRGB">
<feFlood flood-opacity="0" result="BackgroundImageFix"/>
<feColorMatrix in="SourceAlpha" type="matrix" values="0 0 0 0 0 0 0 0 0 0 0 0 0 0 0 0 0 0 127 0"/>
<feOffset dx="4"/>
<feGaussianBlur stdDeviation="2"/>
<feColorMatrix type="matrix" values="0 0 0 0 0 0 0 0 0 0 0 0 0 0 0 0 0 0 0.25 0"/>
<feBlend mode="normal" in2="BackgroundImageFix" result="effect1_dropShadow"/>
<feBlend mode="normal" in="SourceGraphic" in2="effect1_dropShadow" result="shape"/>
</filter>
<filter id="filter2_d" x="0" y="0" width="108" height="108" filterUnits="userSpaceOnUse" color-interpolation-filters="sRGB">
<feFlood flood-opacity="0" result="BackgroundImageFix"/>
<feColorMatrix in="SourceAlpha" type="matrix" values="0 0 0 0 0 0 0 0 0 0 0 0 0 0 0 0 0 0 127 0"/>
<feOffset dx="4"/>
<feGaussianBlur stdDeviation="2"/>
<feColorMatrix type="matrix" values="0 0 0 0 0 0 0 0 0 0 0 0 0 0 0 0 0 0 0.25 0"/>
<feBlend mode="normal" in2="BackgroundImageFix" result="effect1_dropShadow"/>
<feBlend mode="normal" in="SourceGraphic" in2="effect1_dropShadow" result="shape"/>
</filter>
</defs>
</svg>
