<svg width="376" height="63" viewBox="0 0 376 63" fill="none" xmlns="http://www.w3.org/2000/svg">
<g clip-path="url(#clip0)">
<path d="M37.1435 13.3256C37.1435 4.48756 32.0522 0.0625 22.0382 0.0625H0V48.3523H10.3631V9.16582H21.4846C24.9389 9.16582 26.5518 10.5766 26.5518 13.5909C26.5518 18.233 22.6881 21.1509 14.7443 22.5133L14.1064 22.6219V27.4448L28.7062 48.4247H41.5488L26.3592 27.6618C33.5087 23.8879 37.1435 19.0649 37.1435 13.3256Z" fill="black"/>
<path d="M59.1593 12.4556C47.9415 12.4556 42.3086 18.3758 42.3086 30.0473C42.3086 42.2373 48.8563 48.4227 61.759 48.4227C65.5268 48.4791 69.2902 48.1437 72.9887 47.422L73.5906 47.2894V38.8492L72.6879 39.018C69.3037 39.6654 65.8663 39.9925 62.4211 39.9947C56.1502 39.9947 52.9124 38.1137 52.5394 34.2433H75.1794L75.2636 33.5802C75.4656 32.134 75.5662 30.6756 75.5645 29.2154C75.5645 18.0864 70.052 12.4556 59.1593 12.4556ZM59.1593 20.8113C63.3839 20.8113 65.4301 22.6802 65.5866 26.6954H52.5394C53.093 22.6802 55.2114 20.8113 59.1593 20.8113Z" fill="black"/>
<path d="M96.2894 12.4556C92.0109 12.521 87.7542 13.0794 83.6033 14.1195L83.0135 14.2642V22.7043L83.9523 22.4753C87.9893 21.4668 92.1291 20.9287 96.2894 20.8717C101.561 20.8717 102.163 23.0782 102.163 24.73V26.418C100.102 26.0779 98.0172 25.9045 95.9285 25.8995C85.517 25.8995 80.2812 29.6132 80.2812 36.9321C80.2812 44.5523 84.7828 48.4227 93.6534 48.4227C97.1241 48.4389 100.524 47.4418 103.439 45.5531L106.291 48.4227H112.417V24.5732C112.394 16.531 106.978 12.4556 96.2894 12.4556ZM102.187 33.8575V38.3428C100.076 39.8416 97.5537 40.6503 94.9657 40.6578C90.9573 40.6578 90.4999 38.4754 90.4999 36.8356C90.4999 35.1958 91.0656 33.339 95.9888 33.339C98.0662 33.3299 100.14 33.5034 102.187 33.8575Z" fill="black"/>
<path d="M142.157 13.7213C140.141 12.9038 137.989 12.4743 135.814 12.4553C124.487 12.4553 118.746 18.2789 118.746 29.7456C118.746 42.1405 124.608 48.4224 136.174 48.4224C141.459 48.3945 146.717 47.6894 151.822 46.3245L152.387 46.1798V0H142.193L142.157 13.7213ZM142.157 38.7886C140.315 39.3037 138.411 39.5594 136.499 39.5482C131.36 39.5482 128.857 36.2686 128.857 29.5165C128.857 23.9218 131.264 21.1969 136.174 21.1969C138.273 21.1195 140.354 21.6155 142.193 22.6317L142.157 38.7886Z" fill="black"/>
<path d="M174.898 35.6781L166.762 12.4556H155.93L169.361 47.8199C167.756 51.2202 164.959 53.9106 161.502 55.3799L160.648 55.7657L165.75 63.0001L166.329 62.7228C172.117 59.9276 176.603 54.998 178.846 48.9654L193.542 12.4556H182.83L174.898 35.6781Z" fill="black"/>
<path d="M248.848 34.46L233.477 0H223.211V48.4224H232.756V18.9783L244.443 48.4224H252.88L264.302 19.0627V48.4224H273.847V0H263.905L248.848 34.46Z" fill="url(#paint0_linear)"/>
<path d="M297.067 12.4556C292.792 12.5219 288.539 13.0802 284.392 14.1196L283.802 14.2642V22.7044L284.742 22.4753C288.774 21.4629 292.91 20.9207 297.067 20.8596C302.339 20.8596 302.952 23.0661 302.952 24.718V26.406C300.892 26.0658 298.807 25.8925 296.717 25.8876C286.307 25.8876 281.07 29.6012 281.07 36.92C281.07 44.5403 285.572 48.4107 294.443 48.4107C297.914 48.4269 301.314 47.4297 304.228 45.541L307.08 48.4107H313.207V24.5732C313.159 16.531 307.743 12.4556 297.067 12.4556ZM302.952 33.8575V38.3428C300.84 39.8402 298.318 40.6487 295.731 40.6578C291.723 40.6578 291.253 38.4754 291.253 36.8356C291.253 35.1958 291.831 33.339 296.754 33.339C298.831 33.3299 300.905 33.5034 302.952 33.8575Z" fill="url(#paint1_linear)"/>
<path d="M329.826 6.88525H320.715V38.3791C320.715 44.9504 323.977 48.423 330.128 48.423H338.613V39.9827H334.316C332.739 39.9827 330.922 39.5246 330.922 35.9194V20.8718H338.613V12.4317H329.815L329.826 6.88525Z" fill="url(#paint2_linear)"/>
<path d="M359.523 12.4556C348.317 12.4556 342.672 18.3758 342.672 30.0473C342.672 42.2373 349.22 48.4227 362.123 48.4227C365.89 48.4798 369.654 48.1443 373.352 47.422L373.954 47.2894V38.8492L373.051 39.018C369.667 39.6655 366.23 39.9925 362.784 39.9946C356.514 39.9946 353.276 38.1137 352.903 34.2433H375.567L375.663 33.5801C375.859 32.1334 375.96 30.6754 375.965 29.2153C375.94 18.0864 370.415 12.4556 359.523 12.4556ZM359.523 20.8114C363.748 20.8114 365.806 22.6802 365.962 26.6953H352.915C353.469 22.7406 355.635 20.8114 359.523 20.8114Z" fill="url(#paint3_linear)"/>
<path d="M206.845 11.8655C210.097 11.8655 212.734 9.23044 212.734 5.97989C212.734 2.72933 210.097 0.0942383 206.845 0.0942383C203.593 0.0942383 200.957 2.72933 200.957 5.97989C200.957 9.23044 203.593 11.8655 206.845 11.8655Z" fill="#A5A6F6"/>
<path d="M206.845 48.4036C210.097 48.4036 212.734 45.7685 212.734 42.518C212.734 39.2674 210.097 36.6323 206.845 36.6323C203.593 36.6323 200.957 39.2674 200.957 42.518C200.957 45.7685 203.593 48.4036 206.845 48.4036Z" fill="#55DBC2"/>
<path d="M206.845 30.1341C210.097 30.1341 212.734 27.499 212.734 24.2484C212.734 20.9979 210.097 18.3628 206.845 18.3628C203.593 18.3628 200.957 20.9979 200.957 24.2484C200.957 27.499 203.593 30.1341 206.845 30.1341Z" fill="#52C0E2"/>
</g>
<defs>
<linearGradient id="paint0_linear" x1="248.529" y1="0" x2="248.529" y2="48.4224" gradientUnits="userSpaceOnUse">
<stop stop-color="#577FF0"/>
<stop offset="0.846875" stop-color="#7879F1"/>
</linearGradient>
<linearGradient id="paint1_linear" x1="297.139" y1="12.4556" x2="297.139" y2="48.4109" gradientUnits="userSpaceOnUse">
<stop stop-color="#577FF0"/>
<stop offset="0.846875" stop-color="#7879F1"/>
</linearGradient>
<linearGradient id="paint2_linear" x1="329.664" y1="6.88525" x2="329.664" y2="48.423" gradientUnits="userSpaceOnUse">
<stop stop-color="#577FF0"/>
<stop offset="0.846875" stop-color="#7879F1"/>
</linearGradient>
<linearGradient id="paint3_linear" x1="359.318" y1="12.4556" x2="359.318" y2="48.4289" gradientUnits="userSpaceOnUse">
<stop stop-color="#577FF0"/>
<stop offset="0.846875" stop-color="#7879F1"/>
</linearGradient>
<clipPath id="clip0">
<rect width="376" height="63" fill="white"/>
</clipPath>
</defs>
</svg>
